<svg xmlns="http://www.w3.org/2000/svg" width="135.98" height="31.62" viewBox="0 0 135.98 31.62">
  <defs>
    <style>
      .a {
        fill: #fbb03b;
      }
    </style>
  </defs>
  <title>Asset 4</title>
  <g>
    <path class="a" d="M0,0H8.2a21.81,21.81,0,0,1,5.89.6,5.89,5.89,0,0,1,3.23,2.45c.82,1.23,1.23,3.22,1.23,6a6.46,6.46,0,0,1-.86,3.86,6.08,6.08,0,0,1-3.43,1.68,6.09,6.09,0,0,1,3.87,2.14,8.33,8.33,0,0,1,1,4.58v2.93a11.62,11.62,0,0,1-.73,4.75,3.93,3.93,0,0,1-2.34,2.11,23.73,23.73,0,0,1-6.56.57H0ZM8.22,5.41v7l.82,0c.81,0,1.32-.2,1.55-.59a9.85,9.85,0,0,0,.33-3.41,5.33,5.33,0,0,0-.28-2.08,1.28,1.28,0,0,0-.71-.75A5.91,5.91,0,0,0,8.22,5.41Zm0,12v8.85a3.49,3.49,0,0,0,2.22-.55,3.8,3.8,0,0,0,.48-2.4v-3a4.23,4.23,0,0,0-.43-2.46A3.92,3.92,0,0,0,8.22,17.36Z"/>
    <path class="a" d="M38.3,0,43,31.62H34.6l-.44-5.68H31.22l-.49,5.68H22.22L26.42,0ZM34,20.33Q33.32,15,32.69,7.05q-1.24,9.09-1.57,13.28Z"/>
    <path class="a" d="M60.76,0V6.33H55.88V31.62H47.65V6.33H42.79V0Z"/>
    <path class="a" d="M90,0V31.62H82.82V10.27L80,31.62h-5.1l-3-20.86V31.62H64.63V0H75.27c.32,1.9.64,4.14,1,6.72l1.17,8.05L79.31,0Z"/>
    <path class="a" d="M109.52,0l4.7,31.62h-8.4l-.44-5.68h-2.95l-.49,5.68h-8.5L97.63,0Zm-4.36,20.33q-.63-5.37-1.25-13.28-1.26,9.09-1.58,13.28Z"/>
    <path class="a" d="M136,0V31.62h-7.21l-4.28-14.37V31.62h-6.87V0h6.87l4.61,14.24V0Z"/>
  </g>
</svg>
